<svg xmlns="http://www.w3.org/2000/svg" version="1.1" xmlns:xlink="http://www.w3.org/1999/xlink" xmlns:svgjs="http://svgjs.dev/svgjs" width="1000" height="999" viewBox="0 0 1000 999"><g transform="matrix(1,0,0,1,-0.2157434402332683,-0.21552769679306039)"><svg viewBox="0 0 343 343" data-background-color="#4d7e3e" preserveAspectRatio="xMidYMid meet" height="999" width="1000" xmlns="http://www.w3.org/2000/svg" xmlns:xlink="http://www.w3.org/1999/xlink"><g id="tight-bounds" transform="matrix(1,0,0,1,0.07400000000001228,0.07400000000001228)"><svg viewBox="0 0 342.8515585177538 342.8515585177538" height="342.8515585177538" width="342.8515585177538"><g><svg></svg></g><g><svg viewBox="0 0 342.8515585177538 342.8515585177538" height="342.8515585177538" width="342.8515585177538"><g><path d="M0 171.426c0-94.676 76.75-171.426 171.426-171.426 94.676 0 171.426 76.75 171.426 171.426 0 94.676-76.75 171.426-171.426 171.426-94.676 0-171.426-76.75-171.426-171.426zM171.426 338.297c92.16 0 166.871-74.711 166.871-166.871 0-92.16-74.711-166.871-166.871-166.871-92.16 0-166.871 74.711-166.871 166.871 0 92.16 74.711 166.871 166.871 166.871z" data-fill-palette-color="tertiary" fill="#c9efc7" stroke="transparent"></path><ellipse rx="164.56874808852183" ry="164.56874808852183" cx="171.4257792588769" cy="171.4257792588769" fill="#c9efc7" stroke="transparent" stroke-width="0" fill-opacity="1" data-fill-palette-color="tertiary"></ellipse></g><g transform="matrix(1,0,0,1,64.84655864529836,105.31252658055045)"><svg viewBox="0 0 213.15844122715708 132.2265053566529" height="132.2265053566529" width="213.15844122715708"><g><svg viewBox="0 0 213.15844122715714 132.22650535665292" height="132.2265053566529" width="213.15844122715708"><g transform="matrix(1,0,0,1,0,81.72128497471866)"><svg viewBox="0 0 213.15844122715714 50.50522038193425" height="50.50522038193425" width="213.15844122715714"><g id="textblocktransform"><svg viewBox="0 0 213.15844122715714 50.50522038193425" height="50.50522038193425" width="213.15844122715714" id="textblock"><g><svg viewBox="0 0 213.15844122715714 50.50522038193425" height="50.50522038193425" width="213.15844122715714"><g transform="matrix(1,0,0,1,0,0)"><svg width="213.15844122715714" viewBox="1.9500000476837158 -37.9900016784668 208.85000610351562 49.4900016784668" height="50.50522038193425" data-palette-color="#4d7e3e"><path d="M22.46-26.95Q22.46-29.1 21.68-30.18 20.9-31.25 19.96-31.82 19.02-32.4 17.9-32.7 16.77-33.01 15.65-33.01L15.65-33.01Q13.79-33.01 12.4-32.58 11.01-32.15 10.1-31.42 9.18-30.69 8.72-29.71 8.25-28.74 8.25-27.66L8.25-27.66Q8.25-26.05 8.83-25.06 9.4-24.07 10.28-23.47 11.16-22.88 12.22-22.53 13.28-22.19 14.26-21.85L14.26-21.85 19.19-20.24Q21.41-19.53 23.11-18.63 24.8-17.72 25.95-16.49 27.1-15.26 27.7-13.65 28.3-12.04 28.3-9.91L28.3-9.91Q28.3-7.62 27.36-5.66 26.42-3.71 24.73-2.27 23.05-0.83 20.72-0.01 18.38 0.81 15.6 0.81L15.6 0.81Q12.74 0.81 10.72 0.16 8.69-0.49 7.31-1.57 5.93-2.66 5.1-4.05 4.27-5.44 3.81-6.91L3.81-6.91 1.95-6.91 1.95-11.11 8.11-11.11Q8.11-8.4 8.68-7.28 9.25-6.15 10.28-5.41 11.3-4.66 12.72-4.28 14.14-3.91 15.84-3.91L15.84-3.91Q17.5-3.91 18.84-4.3 20.17-4.69 21.11-5.43 22.05-6.18 22.55-7.24 23.05-8.3 23.05-9.64L23.05-9.64Q23.05-11.13 22.42-12.17 21.8-13.21 20.83-13.94 19.85-14.67 18.69-15.14 17.53-15.6 16.46-15.94L16.46-15.94 11.11-17.46Q9.35-17.99 7.9-18.82 6.45-19.65 5.41-20.85 4.37-22.05 3.81-23.65 3.25-25.24 3.25-27.34L3.25-27.34Q3.25-29.47 4.08-31.32 4.91-33.18 6.52-34.57 8.13-35.96 10.46-36.76 12.79-37.55 15.8-37.55L15.8-37.55Q17.77-37.55 19.45-37.08 21.12-36.62 22.47-35.78 23.83-34.94 24.87-33.75 25.9-32.57 26.61-31.15L26.61-31.15 28.44-31.15 28.44-26.95 22.46-26.95ZM32.32-33.79L32.32-37.99 40.33-37.99 40.33-22.51 40.48-22.51Q41.16-23.19 42.05-23.79 42.94-24.39 43.92-24.83 44.89-25.27 45.94-25.51 46.99-25.76 48.14-25.76L48.14-25.76Q50.17-25.76 51.8-25.2 53.44-24.63 54.59-23.49 55.73-22.34 56.36-20.54 56.98-18.75 56.98-16.31L56.98-16.31 56.98-4.2 60.79-4.2 60.79 0 48.78 0 48.78-4.2 52.24-4.2 52.24-15.75Q52.24-18.65 50.77-20.15 49.29-21.66 46.53-21.66L46.53-21.66Q44.97-21.66 43.36-20.91 41.75-20.17 40.33-19.04L40.33-19.04 40.33-4.2 43.99-4.2 43.99 0 31.98 0 31.98-4.2 35.79-4.2 35.79-33.79 32.32-33.79ZM64.69-12.65L64.69-12.65Q64.72-15.65 65.66-18.12 66.6-20.58 68.28-22.35 69.97-24.12 72.29-25.07 74.6-26.03 77.39-26.03L77.39-26.03Q80.2-26.03 82.53-25.07 84.86-24.12 86.52-22.38 88.18-20.63 89.11-18.16 90.03-15.7 90.03-12.7L90.03-12.7Q90.03-9.74 89.11-7.26 88.18-4.79 86.52-3 84.86-1.22 82.53-0.23 80.2 0.76 77.39 0.76L77.39 0.76Q74.53 0.76 72.21-0.22 69.89-1.2 68.23-2.97 66.57-4.74 65.64-7.2 64.72-9.67 64.69-12.65ZM69.5-12.65L69.5-12.65Q69.5-10.47 70.12-8.72 70.75-6.96 71.83-5.73 72.92-4.49 74.35-3.82 75.78-3.15 77.39-3.15L77.39-3.15Q79.07-3.15 80.52-3.81 81.98-4.47 83.05-5.7 84.13-6.93 84.74-8.69 85.35-10.45 85.35-12.65L85.35-12.65Q85.35-14.94 84.74-16.72 84.13-18.51 83.06-19.7 82-20.9 80.54-21.51 79.07-22.12 77.39-22.12L77.39-22.12Q75.78-22.12 74.35-21.51 72.92-20.9 71.83-19.7 70.75-18.51 70.12-16.72 69.5-14.94 69.5-12.65ZM93.94-21.09L93.94-25.29 101.99-25.29 101.99-23.19Q103.61-24.44 105.51-25.17 107.41-25.9 109.44-25.9L109.44-25.9Q111.93-25.9 114.01-24.98 116.08-24.05 117.58-22.36 119.08-20.68 119.91-18.32 120.74-15.97 120.74-13.11L120.74-13.11Q120.74-10.06 119.82-7.54 118.89-5.03 117.24-3.23 115.59-1.44 113.32-0.44 111.05 0.56 108.34 0.56L108.34 0.56Q106.41 0.56 104.91 0.16 103.41-0.24 102.04-0.88L102.04-0.88 102.04 7.3 106 7.3 106 11.5 93.99 11.5 93.99 7.3 97.45 7.3 97.45-21.09 93.94-21.09ZM108.24-21.9L108.24-21.9Q106.49-21.9 104.86-21.19 103.24-20.48 102.04-19.24L102.04-19.24 102.04-5.54Q102.85-4.71 104.35-4.05 105.85-3.39 108.1-3.39L108.1-3.39Q109.66-3.39 111.1-4 112.54-4.61 113.64-5.82 114.74-7.03 115.4-8.81 116.06-10.6 116.06-12.94L116.06-12.94Q116.06-15.09 115.43-16.75 114.81-18.41 113.75-19.56 112.69-20.7 111.27-21.3 109.86-21.9 108.24-21.9ZM123.74-21.09L123.74-25.29 133.34-25.29 133.34-21.09 130.34-21.09 136.27-4.96 142.47-21.09 139.49-21.09 139.49-25.29 149.09-25.29 149.09-21.09 146.47-21.09 135.22 7.3 138.69 7.3 138.69 11.5 128.48 11.5 128.48 7.3 131.56 7.3 134.24 0.34 125.8-21.09 123.74-21.09ZM155.19 0L155.19-4.2 158.7-4.2 158.7-32.79 155.19-32.79 155.19-37.06 171.84-37.01Q174.08-37.01 176.06-36.17 178.04-35.33 179.5-33.87 180.97-32.42 181.81-30.44 182.65-28.47 182.65-26.2L182.65-26.2Q182.65-23.83 181.34-21.88 180.02-19.92 177.58-18.75L177.58-18.75Q178.77-18.12 179.75-17.27 180.72-16.43 181.41-15.43 182.09-14.43 182.47-13.31 182.85-12.18 182.85-11.01L182.85-11.01Q182.85-8.69 182.01-6.69 181.16-4.69 179.7-3.2 178.23-1.71 176.27-0.85 174.3 0 172.06 0L172.06 0 155.19 0ZM172.11-16.46L163.49-16.46 163.49-4.2 172.11-4.2Q173.28-4.2 174.28-4.79 175.28-5.37 176.04-6.31 176.79-7.25 177.22-8.45 177.65-9.64 177.65-10.89L177.65-10.89Q177.65-11.96 177.21-12.96 176.77-13.96 176.03-14.75 175.28-15.53 174.27-15.99 173.25-16.46 172.11-16.46L172.11-16.46ZM171.89-32.79L163.49-32.79 163.49-20.7 171.89-20.7Q173.06-20.7 174.07-21.17 175.09-21.63 175.83-22.41 176.57-23.19 177.01-24.22 177.45-25.24 177.45-26.34L177.45-26.34Q177.45-27.54 177.01-28.7 176.57-29.86 175.82-30.76 175.06-31.67 174.05-32.23 173.03-32.79 171.89-32.79L171.89-32.79ZM185.46-21.09L185.46-25.29 195.05-25.29 195.05-21.09 192.05-21.09 197.98-4.96 204.18-21.09 201.21-21.09 201.21-25.29 210.8-25.29 210.8-21.09 208.19-21.09 196.93 7.3 200.4 7.3 200.4 11.5 190.19 11.5 190.19 7.3 193.27 7.3 195.96 0.34 187.51-21.09 185.46-21.09Z" opacity="1" transform="matrix(1,0,0,1,0,0)" fill="#4d7e3e" class="wordmark-text-0" data-fill-palette-color="quaternary" id="text-0"></path></svg></g></svg></g></svg></g></svg></g><g transform="matrix(1,0,0,1,74.58837226998838,0)"><svg viewBox="0 0 63.981696687180374 69.79821456783314" height="69.79821456783314" width="63.981696687180374"><g><svg xmlns="http://www.w3.org/2000/svg" xmlns:xlink="http://www.w3.org/1999/xlink" version="1.1" x="0" y="0" viewBox="4 0 88 96" enable-background="new 0 0 96 96" xml:space="preserve" height="69.79821456783314" width="63.981696687180374" class="icon-icon-0" data-fill-palette-color="quaternary" id="icon-0"><path d="M85.884 1.328C85.6 0.532 84.852 0 84 0H11.876c-0.848 0-1.604 0.536-1.888 1.336L4 18.316V32c0 3.252 1.832 6 4 6 3.308 0 6-2.692 6-6 0-1.1 0.896-2 2-2s2 0.9 2 2c0 3.308 2.692 6 6 6s6-2.692 6-6c0-1.1 0.896-2 2-2s2 0.9 2 2c0 3.308 2.692 6 6 6s6-2.692 6-6c0-1.1 0.896-2 2-2 1.104 0 2 0.9 2 2 0 3.308 2.691 6 6 6s6-2.692 6-6c0-1.1 0.9-2 2-2s2 0.9 2 2c0 3.308 2.691 6 6 6s6-2.692 6-6c0-1.1 0.9-2 2-2s2 0.9 2 2c0 2.764 1.309 6 5 6s5-3.236 5-6V18.456L85.884 1.328z" fill="#4d7e3e" data-fill-palette-color="quaternary"></path><path d="M72 41.756c-3.264 0-6.172-1.452-8-3.888-1.828 2.428-4.736 4.072-8 4.072s-6.172-1.544-8-3.976c-1.828 2.432-4.732 4.02-8 4.02s-6.172-1.572-8-4c-1.828 2.428-4.732 4.008-8 4.008-1.428 0-2.768-0.344-4-0.884V76h56V40.78C74.764 41.376 73.428 41.756 72 41.756z" fill="#4d7e3e" data-fill-palette-color="quaternary"></path><path d="M80 78c0 1.1-0.9 2-2 2H18c-1.104 0-2-0.9-2-2V37.992C14.172 40.42 11.268 42 8 42v52c0 1.1 0.896 2 2 2h76c1.1 0 2-0.9 2-2 0 0 0-49.064 0-52.948-2.977 0-6.336-0.888-8-3.036V78z" fill="#4d7e3e" data-fill-palette-color="quaternary"></path></svg></g></svg></g><g></g></svg></g></svg></g></svg></g><defs></defs></svg><rect width="342.8515585177538" height="342.8515585177538" fill="none" stroke="none" visibility="hidden"></rect></g></svg></g></svg>